<svg xmlns="http://www.w3.org/2000/svg" viewBox="0 0 1080 77.67"><defs><style>.cls-1{fill:#fff;}</style></defs><g id="Layer_2" data-name="Layer 2"><g id="Layer_1-2" data-name="Layer 1"><g id="Layer_2-2" data-name="Layer 2"><g id="Layer_2-2-2" data-name="Layer 2-2"><polygon class="cls-1" points="92.09 2.67 92.09 75 72.6 75 72.6 6.96 47.6 75 26.59 75 0 2.67 21.73 2.67 37.09 50.63 52.45 2.67 92.09 2.67"/><polygon class="cls-1" points="140.35 56.12 140.35 75 97.23 75 97.23 2.67 116.75 2.67 116.75 56.12 140.35 56.12"/><path class="cls-1" d="M228,2.67H207L187.18,56.54v-.45H163.56V2.67h-19.5V75h58.08l4.25-12.69h22.14L232.89,75h21.73Zm-15.17,40.7,4.61-13.84,4.69,13.84Z"/><path class="cls-1" d="M318.46,40.29c0,17.84-11,35.86-35.39,35.86-20.55,0-36-16-36-37.31s16.06-37.29,37.2-37.29c7.33,0,14.74,1.08,19.29,2.85l.61.24V25.93l-1.41-.76A40.7,40.7,0,0,0,284.25,21c-9.95,0-17.18,7.49-17.18,17.8s7.12,17.8,16.56,17.8c9.16,0,13.54-6,13.75-10.21H282.54V28.57h34.62l.15.74A54,54,0,0,1,318.46,40.29Z"/><polygon class="cls-1" points="339.55 21.57 339.55 29.08 361.08 29.08 361.08 47.97 339.55 47.97 339.55 56.12 363.16 56.12 363.16 75 320.04 75 320.04 2.67 363.16 2.67 363.16 21.57 339.55 21.57"/><polygon class="cls-1" points="482.37 21.57 482.37 32.19 503.91 32.19 503.91 51.07 482.37 51.07 482.37 75 462.87 75 462.87 2.67 505.97 2.67 505.97 21.57 482.37 21.57"/><polygon class="cls-1" points="574.44 2.67 574.44 21.57 558.18 21.57 558.18 75 538.67 75 538.67 21.57 522.4 21.57 522.4 2.67 574.44 2.67"/><polygon class="cls-1" points="641.86 2.67 641.86 75 622.36 75 622.36 47.97 596.1 47.97 596.1 75 576.59 75 576.59 2.67 596.1 2.67 596.1 29.08 622.36 29.08 622.36 2.67 641.86 2.67"/><path class="cls-1" d="M781.42,2.67V46.92c0,18-10.92,29.22-28.5,29.22S724.43,65,724.43,46.92V2.67h19.49V48.36c0,5.35,3.55,8.79,9,8.79s9-3.46,9-8.79V2.67Z"/><path class="cls-1" d="M830.93,53.08c0,17-13.74,23-25.49,23a52.48,52.48,0,0,1-18.38-3.38l-.59-.25V50.77L788,51.92a30.43,30.43,0,0,0,16.69,5.77c3.71,0,5.59-1.15,5.59-3.61,0-.81-.44-2.13-4.18-4.25l-8.39-4.76C788.49,39.8,784.5,33.47,784.5,24c0-16.59,13.85-22.48,26.73-22.48a42.74,42.74,0,0,1,15.4,3l.59.25v20.7l-1.47-.94c-3.46-2.24-9.75-4.62-14.61-4.62-2.7,0-5.88.61-5.88,3.46,0,1.23,1.47,2.78,4.07,4.26l8,4.62C826.6,37.58,830.93,44.24,830.93,53.08Z"/><path class="cls-1" d="M941.67,2.67V40.21L917,2.67H894.83V5l4.88,8.08V71.8L874.33,2.67h-21L826.71,75h21.7l4.28-12.69h22.13L879.16,75h40.07V41.31L942.09,75h19.06V2.67Zm-82.59,40.7,4.71-13.84,4.62,13.84Z"/><path class="cls-1" d="M997.86,2.67H970.07V75h27.79c21.42,0,35.84-14.54,35.84-36.16S1019.28,2.67,997.86,2.67Zm-.22,53.45h-8.08V21.51h8.08c9.88,0,16,6.63,16,17.31S1007.52,56.12,997.64,56.12Z"/><path class="cls-1" d="M1080,53.08c0,17-13.74,23.07-25.5,23.07a52.33,52.33,0,0,1-18.35-3.39l-.61-.24V50.77l1.54,1.15a30.52,30.52,0,0,0,16.72,5.77c3.7,0,5.58-1.15,5.58-3.61,0-.81-.44-2.13-4.18-4.25l-8.41-4.76c-9.23-5.27-13.2-11.6-13.2-21.12,0-16.59,13.85-22.48,26.74-22.48a42.42,42.42,0,0,1,15.34,3l.59.25v20.7l-1.46-.94c-3.47-2.24-9.75-4.62-14.61-4.62-2.68,0-5.89.61-5.89,3.46,0,1.23,1.48,2.78,4.09,4.26l8,4.62C1075.65,37.58,1080,44.24,1080,53.08Z"/><path class="cls-1" d="M422.5,0c-22.12,0-38.73,16.68-38.73,38.84s16.61,38.83,38.73,38.83S461.22,61,461.22,38.84,444.58,0,422.5,0Zm0,57.8c-10.28,0-18.31-8.33-18.31-19s8.08-19,18.31-19,18.27,8.31,18.27,19S432.77,57.8,422.5,57.8Z"/><path class="cls-1" d="M683.17,0c-22,0-38.74,16.68-38.74,38.84s16.72,38.83,38.74,38.83S721.88,61,721.88,38.84,705.24,0,683.17,0Zm0,57.8c-10.28,0-18.31-8.33-18.31-19s8.07-19,18.31-19,18.29,8.31,18.29,19S693.46,57.8,683.17,57.8Z"/></g></g></g></g></svg>