<svg xmlns="http://www.w3.org/2000/svg" viewBox="0 0 936 67.31"><defs><style>.cls-1{fill:#fff;}</style></defs><g id="Layer_2" data-name="Layer 2"><g id="Layer_2-2" data-name="Layer 2"><polygon class="cls-1" points="79.81 2.31 79.81 65 62.92 65 62.92 6.03 41.25 65 23.04 65 0 2.31 18.83 2.31 32.14 43.88 45.46 2.31 79.81 2.31"/><polygon class="cls-1" points="121.64 48.64 121.64 65 84.27 65 84.27 2.31 101.18 2.31 101.18 48.64 121.64 48.64"/><path class="cls-1" d="M197.61,2.31h-18.2L162.22,49v-.39H141.75V2.31h-16.9V65h50.34l3.68-11h19.19l3.78,11h18.83ZM184.46,37.59l4-12,4.06,12Z"/><path class="cls-1" d="M276,34.92C276,50.38,266.48,66,245.33,66c-17.81,0-31.25-13.9-31.25-32.34S228,1.34,246.32,1.34c6.36,0,12.78.94,16.72,2.47l.53.21V22.47l-1.22-.66a35.29,35.29,0,0,0-16-3.58c-8.62,0-14.89,6.49-14.89,15.42s6.17,15.43,14.35,15.43c7.94,0,11.74-5.18,11.92-8.85H244.87V24.76h30l.13.64A46.75,46.75,0,0,1,276,34.92Z"/><polygon class="cls-1" points="294.28 18.69 294.28 25.2 312.94 25.2 312.94 41.57 294.28 41.57 294.28 48.64 314.74 48.64 314.74 65 277.37 65 277.37 2.31 314.74 2.31 314.74 18.69 294.28 18.69"/><polygon class="cls-1" points="418.05 18.69 418.05 27.9 436.72 27.9 436.72 44.26 418.05 44.26 418.05 65 401.15 65 401.15 2.31 438.51 2.31 438.51 18.69 418.05 18.69"/><polygon class="cls-1" points="497.85 2.31 497.85 18.69 483.76 18.69 483.76 65 466.85 65 466.85 18.69 452.75 18.69 452.75 2.31 497.85 2.31"/><polygon class="cls-1" points="556.28 2.31 556.28 65 539.38 65 539.38 41.57 516.62 41.57 516.62 65 499.71 65 499.71 2.31 516.62 2.31 516.62 25.2 539.38 25.2 539.38 2.31 556.28 2.31"/><path class="cls-1" d="M677.23,2.31V40.66c0,15.63-9.46,25.33-24.7,25.33s-24.69-9.7-24.69-25.33V2.31h16.89v39.6c0,4.64,3.08,7.62,7.8,7.62s7.79-3,7.79-7.62V2.31Z"/><path class="cls-1" d="M720.14,46c0,14.72-11.91,19.95-22.09,19.95a45.27,45.27,0,0,1-15.93-2.93l-.51-.21V44l1.33,1a26.47,26.47,0,0,0,14.47,5c3.21,0,4.84-1,4.84-3.13,0-.7-.38-1.85-3.62-3.68l-7.27-4.13c-8-4.57-11.46-10.05-11.46-18.3,0-14.38,12-19.49,23.17-19.49A37.19,37.19,0,0,1,716.41,3.9l.51.22V22.06l-1.27-.82c-3-1.94-8.45-4-12.66-4-2.34,0-5.1.53-5.1,3,0,1.06,1.28,2.41,3.53,3.69l6.91,4C716.39,32.57,720.14,38.34,720.14,46Z"/><path class="cls-1" d="M816.11,2.31V34.85L794.75,2.31H775.52v2l4.23,7V62.23l-22-59.92h-18.2L716.48,65h18.81L739,54h19.18l3.76,11h34.73V35.8L816.48,65H833V2.31ZM744.54,37.59l4.08-12,4,12Z"/><path class="cls-1" d="M864.81,2.31H840.73V65h24.08c18.57,0,31.06-12.6,31.06-31.34S883.38,2.31,864.81,2.31Zm-.19,46.33h-7v-30h7c8.56,0,13.9,5.75,13.9,15S873.18,48.64,864.62,48.64Z"/><path class="cls-1" d="M936,46C936,60.76,924.09,66,913.9,66A45.26,45.26,0,0,1,898,63.06l-.53-.21V44l1.33,1a26.48,26.48,0,0,0,14.49,5c3.21,0,4.84-1,4.84-3.13,0-.7-.38-1.85-3.62-3.68l-7.29-4.13c-8-4.57-11.44-10.05-11.44-18.3,0-14.38,12-19.49,23.17-19.49A37,37,0,0,1,932.25,3.9l.51.22V22.06l-1.27-.82c-3-1.94-8.45-4-12.66-4-2.32,0-5.1.53-5.1,3,0,1.06,1.28,2.41,3.54,3.69l6.9,4C932.23,32.57,936,38.34,936,46Z"/><path class="cls-1" d="M366.17,0C347,0,332.6,14.46,332.6,33.66S347,67.31,366.17,67.31s33.55-14.46,33.55-33.65S385.3,0,366.17,0Zm0,50.09c-8.91,0-15.87-7.22-15.87-16.43s7-16.43,15.87-16.43S382,24.43,382,33.66,375.07,50.09,366.17,50.09Z"/><path class="cls-1" d="M592.08,0C573,0,558.51,14.46,558.51,33.66S573,67.31,592.08,67.31s33.55-14.46,33.55-33.65S611.21,0,592.08,0Zm0,50.09c-8.91,0-15.87-7.22-15.87-16.43s7-16.43,15.87-16.43,15.85,7.2,15.85,16.43S601,50.09,592.08,50.09Z"/></g></g></svg>