<svg xmlns="http://www.w3.org/2000/svg" viewBox="0 0 200 200"><g id="Layer_2" data-name="Layer 2"><g id="Layer_4" data-name="Layer 4"><path d="M89.41,105.34c0,7.8-5.51,14.2-12.49,14.2s-12.49-6.4-12.49-14.2,5.51-14.22,12.49-14.22S89.53,97.52,89.41,105.34Z"/><path d="M135.57,105.34c0,7.8-5.51,14.2-12.49,14.2s-12.49-6.4-12.49-14.2,5.51-14.22,12.49-14.22S135.69,97.52,135.57,105.34Z"/><path d="M100,0A100,100,0,1,0,200,100,100,100,0,0,0,100,0Zm68.88,135.75a114.42,114.42,0,0,1-35.18,18,88.09,88.09,0,0,1-7.53-12.4,74.15,74.15,0,0,0,11.88-5.79c-1-.73-2-1.5-2.91-2.3-22.58,10.7-47.42,10.7-70.28,0-.94.8-1.92,1.57-2.91,2.3a73,73,0,0,0,11.86,5.77,87.33,87.33,0,0,1-7.53,12.4,114.58,114.58,0,0,1-35.16-18c-2.46-26.35,2.46-53.08,20.6-80.5a113.4,113.4,0,0,1,28.69-9,82.67,82.67,0,0,1,3.71,7.63,105.09,105.09,0,0,1,31.77,0c1-2.39,2.44-5.39,3.67-7.63a113.4,113.4,0,0,1,28.66,9C164,78.72,171.76,105.2,168.88,135.75Z"/></g></g></svg>