<?xml version="1.0" encoding="UTF-8"?><svg id="Layer_2" xmlns="http://www.w3.org/2000/svg" viewBox="0 0 200 200"><g id="discord_social-circles"><g><path d="M89.41,105.34c.01,7.8-5.51,14.2-12.49,14.2s-12.49-6.4-12.49-14.2,5.51-14.22,12.49-14.22,12.61,6.4,12.49,14.22Z"/><path d="M135.57,105.34c0,7.8-5.51,14.2-12.49,14.2s-12.49-6.4-12.49-14.2,5.51-14.22,12.49-14.22,12.61,6.4,12.49,14.22Z"/><path d="M100,0C44.77,0,0,44.77,0,100s44.77,100,100,100,100-44.77,100-100S155.23,0,100,0Zm68.88,135.75c-12.03,9-23.7,14.45-35.18,18.03-2.84-3.9-5.35-8.05-7.53-12.4,4.14-1.58,8.12-3.52,11.88-5.79-.98-.73-1.96-1.5-2.91-2.3-22.58,10.7-47.42,10.7-70.28,0-.94,.8-1.92,1.57-2.91,2.3,3.75,2.26,7.71,4.2,11.86,5.77-2.18,4.37-4.7,8.51-7.53,12.4-11.47-3.57-23.13-9.03-35.16-18.01-2.46-26.35,2.46-53.08,20.6-80.5,8.99-4.21,18.62-7.28,28.69-9.03,1.24,2.24,2.72,5.24,3.71,7.63,10.49-1.61,21.08-1.61,31.77,0,.99-2.39,2.44-5.39,3.67-7.63,10.05,1.75,19.67,4.8,28.66,9.01,15.73,23.49,23.54,49.97,20.66,80.52Z"/></g></g></svg>