<svg xmlns="http://www.w3.org/2000/svg" viewBox="0 0 200 198"><defs><style>.cls-1{fill:#010101;}</style></defs><g id="Layer_2" data-name="Layer 2"><g id="Layer_3" data-name="Layer 3"><path class="cls-1" d="M100,0C44.75,0,0,45.45,0,101.51c0,44.86,28.65,82.91,68.37,96.31,5,1,6.84-2.18,6.84-4.88,0-2.41-.09-8.79-.13-17.25-27.81,6.12-33.68-13.62-33.68-13.62-4.55-11.72-11.13-14.85-11.13-14.85-9-6.29.71-6.17.71-6.17,10,.71,15.31,10.46,15.31,10.46,8.92,15.52,23.41,11,29.13,8.44.9-6.56,3.47-11,6.33-13.58C59.54,143.84,36.2,135.11,36.2,96.21A39.54,39.54,0,0,1,46.49,69c-1.12-2.56-4.5-12.88.88-26.87,0,0,8.37-2.72,27.5,10.41a92.82,92.82,0,0,1,50,0c19-13.13,27.37-10.41,27.37-10.41,5.38,14,2,24.31,1,26.87a39.65,39.65,0,0,1,10.25,27.24c0,39-23.37,47.58-45.62,50.08,3.5,3,6.75,9.27,6.75,18.78,0,13.59-.13,24.5-.13,27.8,0,2.66,1.75,5.83,6.88,4.82,40-13.32,68.63-51.38,68.63-96.18C200,45.45,155.22,0,100,0"/></g></g></svg>