<svg xmlns="http://www.w3.org/2000/svg" viewBox="0 0 200 200"><g id="Layer_2" data-name="Layer 2"><g id="Layer_2-2" data-name="Layer 2"><circle cx="100" cy="100" r="19.7"/><path d="M148.11,76.12a32.94,32.94,0,0,0-2-11,19.58,19.58,0,0,0-11.21-11.21,32.94,32.94,0,0,0-11-2c-6.23-.28-8.1-.34-23.88-.34s-17.65.06-23.88.34a32.94,32.94,0,0,0-11,2A19.58,19.58,0,0,0,53.93,65.14a32.68,32.68,0,0,0-2,11c-.28,6.23-.34,8.1-.34,23.88s.06,17.65.34,23.88a32.68,32.68,0,0,0,2,11,19.58,19.58,0,0,0,11.21,11.21,32.68,32.68,0,0,0,11,2c6.23.28,8.1.34,23.88.34s17.65-.06,23.88-.34a32.68,32.68,0,0,0,11-2,19.58,19.58,0,0,0,11.21-11.21,32.94,32.94,0,0,0,2-11c.28-6.23.34-8.1.34-23.88S148.39,82.35,148.11,76.12ZM100,130.35A30.35,30.35,0,1,1,130.35,100,30.35,30.35,0,0,1,100,130.35Zm31.55-54.81a7.09,7.09,0,1,1,7.09-7.09A7.08,7.08,0,0,1,131.55,75.54Z"/><path d="M100,0A100,100,0,1,0,200,100,100,100,0,0,0,100,0Zm58.75,124.37A43.44,43.44,0,0,1,156,138.71,30.25,30.25,0,0,1,138.71,156a43.44,43.44,0,0,1-14.34,2.75c-6.31.28-8.32.35-24.37.35s-18.06-.07-24.37-.35A43.44,43.44,0,0,1,61.29,156,30.25,30.25,0,0,1,44,138.71a43.44,43.44,0,0,1-2.75-14.34c-.28-6.31-.35-8.32-.35-24.37s.07-18.06.35-24.37A43.44,43.44,0,0,1,44,61.29,30.25,30.25,0,0,1,61.29,44a43.44,43.44,0,0,1,14.34-2.75C81.94,41,84,40.9,100,40.9s18.06.07,24.37.35A43.44,43.44,0,0,1,138.71,44,30.25,30.25,0,0,1,156,61.29a43.44,43.44,0,0,1,2.75,14.34c.28,6.31.35,8.32.35,24.37S159,118.06,158.75,124.37Z"/></g></g></svg>