<?xml version="1.0" encoding="UTF-8"?><svg id="Layer_2" xmlns="http://www.w3.org/2000/svg" viewBox="0 0 200 200"><g id="instagram_social-circles"><g><circle cx="100" cy="100" r="19.7"/><path d="M148.11,76.12c-.27-5.76-1.23-8.89-2.04-10.98-1.07-2.75-2.35-4.72-4.42-6.79-2.07-2.07-4.04-3.35-6.79-4.42-2.09-.81-5.22-1.77-10.98-2.04-6.23-.28-8.1-.34-23.88-.34s-17.65,.06-23.88,.34c-5.76,.27-8.89,1.23-10.98,2.04-2.76,1.07-4.72,2.35-6.79,4.42-2.07,2.07-3.35,4.04-4.42,6.79-.81,2.09-1.78,5.22-2.04,10.98-.28,6.23-.34,8.1-.34,23.88s.06,17.65,.34,23.88c.26,5.76,1.23,8.89,2.04,10.98,1.07,2.76,2.35,4.72,4.42,6.79,2.07,2.07,4.03,3.35,6.79,4.42,2.09,.81,5.22,1.78,10.98,2.04,6.23,.28,8.1,.34,23.88,.34s17.65-.06,23.88-.34c5.76-.26,8.89-1.23,10.98-2.04,2.75-1.07,4.72-2.35,6.79-4.42,2.07-2.07,3.35-4.03,4.42-6.79,.81-2.09,1.77-5.22,2.04-10.98,.28-6.23,.34-8.1,.34-23.88s-.06-17.65-.34-23.88Zm-48.11,54.23c-16.76,0-30.35-13.59-30.35-30.35s13.59-30.35,30.35-30.35,30.35,13.59,30.35,30.35-13.59,30.35-30.35,30.35Zm31.55-54.81c-3.92,0-7.09-3.17-7.09-7.09s3.17-7.09,7.09-7.09,7.09,3.17,7.09,7.09-3.17,7.09-7.09,7.09Z"/><path d="M100,0C44.77,0,0,44.77,0,100s44.77,100,100,100,100-44.77,100-100S155.23,0,100,0Zm58.75,124.37c-.29,6.29-1.29,10.58-2.75,14.34-1.51,3.89-3.53,7.19-6.82,10.47-3.28,3.29-6.58,5.31-10.47,6.82-3.76,1.46-8.05,2.46-14.34,2.75-6.31,.28-8.32,.35-24.37,.35s-18.06-.07-24.37-.35c-6.29-.29-10.58-1.29-14.34-2.75-3.89-1.51-7.19-3.53-10.47-6.82-3.29-3.28-5.31-6.58-6.82-10.47-1.46-3.76-2.46-8.05-2.75-14.34-.28-6.31-.35-8.32-.35-24.37s.07-18.06,.35-24.37c.29-6.29,1.29-10.58,2.75-14.34,1.51-3.89,3.53-7.19,6.82-10.47,3.28-3.29,6.58-5.31,10.47-6.82,3.76-1.46,8.05-2.46,14.34-2.75,6.31-.28,8.32-.35,24.37-.35s18.06,.07,24.37,.35c6.29,.29,10.58,1.29,14.34,2.75,3.89,1.51,7.19,3.53,10.47,6.82,3.29,3.28,5.31,6.58,6.82,10.47,1.46,3.76,2.46,8.05,2.75,14.34,.28,6.31,.35,8.32,.35,24.37s-.07,18.06-.35,24.37Z"/></g></g></svg>