<?xml version="1.0" encoding="UTF-8"?><svg xmlns="http://www.w3.org/2000/svg" viewBox="0 0 200 200"><g id="a"/><g id="b"><g id="c"><path d="M100,0C44.77,0,0,44.77,0,100s44.77,100,100,100,100-44.77,100-100S155.23,0,100,0Zm57.19,87.25h-.02c-1.09,.11-2.19,.16-3.28,.17-12.04,0-23.26-6.07-29.86-16.13v54.93c0,22.43-18.18,40.61-40.6,40.61s-40.61-18.18-40.61-40.61,18.18-40.6,40.61-40.6c.85,0,1.67,.08,2.51,.13v20.01c-.84-.1-1.65-.26-2.51-.26-11.45,0-20.73,9.28-20.73,20.73s9.28,20.72,20.73,20.72,21.56-9.02,21.56-20.46l.2-93.31h19.14c1.8,17.17,15.65,30.58,32.86,31.83v22.24Z"/></g></g></svg>