<?xml version="1.0" encoding="UTF-8"?><svg id="Layer_2" xmlns="http://www.w3.org/2000/svg" viewBox="0 0 200 200"><g id="twitter_social-circles"><path d="M99.99,0C44.86,0,0,44.87,0,99.99s44.86,100.01,99.99,100.01,100.01-44.86,100.01-100.01S155.13,0,99.99,0h0Zm44.63,77.12c.04,.98,.06,1.98,.06,2.99,0,30.41-23.15,65.47-65.49,65.47-13,0-25.1-3.79-35.28-10.34,1.81,.22,3.64,.33,5.49,.33,10.79,0,20.71-3.68,28.59-9.85-10.07-.2-18.56-6.84-21.49-15.99,1.39,.28,2.83,.41,4.32,.41,2.08,0,4.13-.27,6.06-.81-10.52-2.1-18.47-11.4-18.47-22.56,0-.1,0-.2,.02-.3,3.09,1.73,6.65,2.75,10.43,2.87-6.18-4.11-10.25-11.17-10.25-19.15,0-4.21,1.14-8.16,3.11-11.57,11.34,13.93,28.32,23.09,47.43,24.05-.39-1.69-.59-3.44-.59-5.25,0-12.7,10.31-23.01,23.01-23.01,6.63,0,12.6,2.79,16.79,7.26,5.25-1.02,10.19-2.93,14.64-5.58-1.73,5.39-5.37,9.89-10.13,12.74,4.66-.55,9.11-1.79,13.22-3.61-3.07,4.6-6.98,8.65-11.46,11.9h0Z"/></g></svg>