<svg xmlns="http://www.w3.org/2000/svg" viewBox="0 0 200 200"><g id="Layer_2" data-name="Layer 2"><g id="Layer_1-2" data-name="Layer 1"><path d="M100,0A100,100,0,1,0,200,100,100.12,100.12,0,0,0,100,0Zm44.63,77.12c0,1,0,2,0,3,0,30.41-23.14,65.47-65.49,65.47A65,65,0,0,1,43.9,135.24a47.46,47.46,0,0,0,5.49.33A46.2,46.2,0,0,0,78,125.72a23.05,23.05,0,0,1-21.49-16,21.83,21.83,0,0,0,4.32.42,22.49,22.49,0,0,0,6.06-.81A23,23,0,0,1,48.4,86.78a1.51,1.51,0,0,1,0-.3,22.8,22.8,0,0,0,10.43,2.87,23,23,0,0,1-7.14-30.72A65.32,65.32,0,0,0,99.14,82.68a23.28,23.28,0,0,1-.59-5.25,23,23,0,0,1,39.81-15.75A45.24,45.24,0,0,0,153,56.09a23.1,23.1,0,0,1-10.13,12.75,45.55,45.55,0,0,0,13.22-3.62,47,47,0,0,1-11.46,11.9Z"/></g></g></svg>