<svg xmlns="http://www.w3.org/2000/svg" viewBox="0 0 591.14 577.14"><defs><style>.cls-1{isolation:isolate;}</style></defs><g id="Layer_2" data-name="Layer 2"><g id="Layer_2-2" data-name="Layer 2"><polygon class="cls-1" points="591.14 0 591.14 575.88 479.54 575.88 479.54 531.57 561.39 531.57 561.39 27.43 479.54 27.43 479.54 0 591.14 0"/><polygon class="cls-1" points="0 1.26 0 577.14 111.59 577.14 111.59 532.83 29.75 532.83 29.75 28.69 111.59 28.69 111.59 1.26 0 1.26"/><path d="M289.53,187.37a172.85,172.85,0,0,0-58.19,13.35c-1.89.78-3.66,1.59-5.45,2.44L146.28,97.86l-8.54-11.32h75.6Z"/><path d="M460.38,86.53,372.27,203.21c-1.8-.85-3.63-1.66-5.46-2.43a172.52,172.52,0,0,0-58.17-13.41L384.77,86.53Z"/><path d="M492.44,70.23l-106,140.36c-3-1.75-6.11-3.43-9.24-5l94-124.5H382.08l-80,106h-6L219.85,86.28l-3.77-5.13H127l15.09,20L221,205.59c-3.13,1.57-6.2,3.25-9.24,5l-106-140.36H236.26v4.53l-5.2,9,68,90.09,68-90.09-5.21-9V70.21Z"/><path d="M289.53,187.37a172.85,172.85,0,0,0-58.19,13.35c-1.89.78-3.66,1.59-5.45,2.44L146.28,97.86l-8.54-11.32h75.6Z"/><path d="M460.38,86.53,372.27,203.21c-1.8-.85-3.63-1.66-5.46-2.43a172.52,172.52,0,0,0-58.17-13.41L384.77,86.53Z"/><path d="M492.44,70.23l-106,140.36c-3-1.75-6.11-3.43-9.24-5l94-124.5H382.08l-80,106h-6L219.85,86.28l-3.77-5.13H127l15.09,20L221,205.59c-3.13,1.57-6.2,3.25-9.24,5l-106-140.36H236.26v4.53l-5.2,9,68,90.09,68-90.09-5.21-9V70.21Z"/><path d="M468.28,361.06a169.25,169.25,0,0,1-127,163.9V510.25a155.13,155.13,0,0,0,33.65-284.42c-3.08-1.73-6.19-3.34-9.43-4.85-1.66-.79-3.34-1.54-5-2.28a154.15,154.15,0,0,0-56.72-12.52h-9.43a154.2,154.2,0,0,0-56.73,12.52c-1.68.74-3.35,1.49-5,2.28q-4.76,2.27-9.44,4.83a155.26,155.26,0,0,0,33.81,284.61v14.71a169.26,169.26,0,0,1-42.28-310.56c3-1.75,6.14-3.4,9.27-5,1.64-.81,3.3-1.6,5-2.36A168.29,168.29,0,0,1,293,192.16c1.79,0,3.59-.09,5.38-.09h1.28c1.89,0,3.59,0,5.38.09a167.73,167.73,0,0,1,64.13,15.09c1.66.76,3.32,1.55,5,2.36q4.71,2.34,9.27,5A169.09,169.09,0,0,1,468.28,361.06Z"/><path d="M404.84,255.43a150,150,0,0,0-33.23-25.13c-3.08-1.72-6.21-3.3-9.44-4.79-1.66-.77-3.33-1.53-5-2.23A148.35,148.35,0,0,0,307.94,212c-2.94-.19-5.92-.27-8.9-.27s-5.94,0-8.9.27a148.35,148.35,0,0,0-49.2,11.31c-1.68.7-3.38,1.46-5,2.23-3.18,1.49-6.32,3.07-9.43,4.79a149.74,149.74,0,0,0,30.37,274.52V453.49a101.54,101.54,0,0,1-59.32-89.56h65.23V526.42a170.47,170.47,0,0,0,72.51,0V364h65.3a101.55,101.55,0,0,1-59.32,89.54v51.23a149.64,149.64,0,0,0,63.6-249.29ZM221,296.36a101.49,101.49,0,0,1,156.19,0Z"/></g></g></svg>