<?xml version="1.0" encoding="UTF-8"?><svg id="Layer_2" xmlns="http://www.w3.org/2000/svg" viewBox="0 0 200 200"><g id="vot_social-circles"><path d="M109.23,99.23c-3.26-2.11-6.73-2.99-10.53-2.7-2.06,.14-4.08,.66-6,1.6-1.86,.86-3.53,2.09-4.99,3.62h24.54c-.92-.98-1.92-1.8-3.02-2.52Zm0,0c-3.26-2.11-6.73-2.99-10.53-2.7-2.06,.14-4.08,.66-6,1.6-1.86,.86-3.53,2.09-4.99,3.62h24.54c-.92-.98-1.92-1.8-3.02-2.52ZM100,0C44.77,0,0,44.77,0,100s44.77,100,100,100,100-44.77,100-100S155.23,0,100,0Zm-31.23,148.4c0,.79-.52,1.51-1.28,1.73-.36,.11-4.01,.14-7.75,.14-4.18,0-8.48-.03-8.53-.05-.9-.11-1.58-.86-1.58-1.78V51.58c0-.81,.54-1.53,1.33-1.73,.79-.21,17.97-.07,18.08-.05,.84,.16,1.46,.9,1.46,1.76v4.61c0,.99-.81,1.8-1.8,1.8h-10.87v81.27h9.14c.99,0,1.8,.81,1.8,1.8v7.36Zm38.48-6.83c-.13,.06-.27,0-.38-.07s-.16-.2-.16-.34v-2.45c0-.2-.02-.83-.02-.97v-.36c0-2.68,0-5.38-.02-8.05,0-.43,.18-.7,.6-.9,3.27-1.56,5.79-3.95,7.48-7.1,1.03-1.86,1.64-3.75,1.89-5.74,.06-.45,.09-.9,.13-1.35h-10.17v27.19c0,.21-.14,.39-.36,.43-2.1,.47-4.17,.7-6.26,.7s-4.15-.23-6.26-.7c-.21-.04-.36-.22-.36-.43v-27.19h-10.16v.14c.16,2.25,.75,4.41,1.74,6.42,1.69,3.33,4.27,5.93,7.68,7.6l.18,.11c.42,.19,.45,.39,.45,.79v8.44c0,.16-.01,.76-.01,.95v2.47c0,.14-.06,.27-.17,.34-.09,.07-.18,.11-.28,.11-.04,0-.08,0-.09-.04-10.46-2.28-21.72-12.83-21.97-27.84-.18-10.87,5.63-20.48,14.37-25.64-.12,0-.27-.06-.36-.18l-6.51-8.61c-3.81-5.07-7.64-10.16-11.48-15.24-.09-.11-.1-.25-.07-.4,.06-.16,.16-.27,.31-.28,.45-.13,22.18-.06,22.34-.04,.2,.04,.36,.2,.38,.4,.04,.43,.09,.9-.23,1.4-.18,.25-.33,.5-.47,.79l-.06,.11c3.67,4.86,7.34,9.72,11.05,14.61l2.81-3.72c2.73-3.64,5.47-7.27,8.22-10.91-.02-.03-.06-.09-.07-.12-.13-.22-.26-.44-.4-.65-.29-.43-.4-.96-.31-1.51,.04-.17,.15-.31,.31-.36,.52-.17,22.29-.04,22.42,0,.16,.01,.27,.12,.32,.27,.05,.14,.04,.3-.05,.41l-8.03,10.64c-3.33,4.39-6.65,8.8-10,13.21-.09,.12-.22,.18-.36,.18-.07,0-.14-.02-.22-.06,8.28,4.83,14.07,13.61,14.58,23.7,.79,16.06-10.73,27.36-21.97,29.84Zm43.12,6.89c0,.97-.77,1.76-1.74,1.8l-.06-1.8-.03,1.8h-15.53c-.99,0-1.8-.8-1.8-1.8v-7.4c0-.95,.76-1.75,1.71-1.8,.54-.02,1.06-.02,1.59-.02h7.64c.06-10.94,.07-70.29,.02-81.27h-10.81c-.78,0-1.48-.49-1.71-1.23-.25-.77-.16-5.16-.07-5.57,.16-.85,.9-1.44,1.74-1.44h17.25c.47,0,.94,.18,1.26,.52,.35,.34,.54,.79,.54,1.28v96.93Zm-41.14-49.23c-3.26-2.11-6.73-2.99-10.53-2.7-2.06,.14-4.08,.66-6,1.6-1.86,.86-3.53,2.09-4.99,3.62h24.54c-.92-.98-1.92-1.8-3.02-2.52Z"/></g></svg>