<?xml version="1.0" encoding="UTF-8"?><svg id="Layer_2" xmlns="http://www.w3.org/2000/svg" viewBox="0 0 200 200"><g id="www01_social-circles"><g><path d="M100,0C44.77,0,0,44.77,0,100s44.77,100,100,100,100-44.77,100-100S155.23,0,100,0Zm0,161.24c-33.76,0-61.23-27.47-61.23-61.24s27.47-61.23,61.23-61.23,61.23,27.47,61.23,61.23-27.47,61.24-61.23,61.24Z"/><path d="M126.89,101.6l-.02,1.02c-.2,7.27-1.15,14.24-2.82,20.71l-.15,.57-.57,.15c-5.85,1.51-11.93,2.44-18.09,2.75l-1.05,.06v-25.26h22.7Z"/><path d="M148.12,122.2l-1.83,3.31c-4.84,8.75-12.03,15.94-20.78,20.78l-3.35,1.85,2.01-3.25c2.54-4.1,4.67-8.73,6.32-13.76l.16-.47,.47-.16c5.07-1.71,9.7-3.84,13.77-6.33l3.23-1.97Z"/><path d="M126.69,93.22h-22.5v-20.07l1.05,.05c6.09,.31,12.18,1.23,18.08,2.72l.58,.15,.15,.57c1.23,4.78,2.09,9.99,2.55,15.5l.09,1.08Z"/><path d="M95.81,135.18v17.09l-1.39-.59c-5.53-2.35-10.51-8.1-14.42-16.64l-.8-1.75,1.89,.35c4.45,.81,9.08,1.32,13.76,1.51l.96,.03Z"/><path d="M77.8,148.12l-3.31-1.83c-8.75-4.84-15.94-12.03-20.78-20.78l-1.85-3.35,3.26,2.02c4.09,2.53,8.72,4.66,13.75,6.31l.48,.16,.16,.47c1.71,5.07,3.84,9.71,6.32,13.77l1.97,3.23Z"/><path d="M95.81,101.6v25.26l-1.05-.06c-6.09-.31-12.18-1.22-18.08-2.72l-.58-.14-.15-.58c-1.67-6.5-2.62-13.48-2.82-20.74l-.02-1.02h22.7Z"/><path d="M66.71,120.8l-1.74-.8c-9.94-4.55-16.17-10.66-17.55-17.2l-.26-1.2h17.58l.02,.97c.13,5.64,.67,11.14,1.61,16.35l.34,1.88Z"/><path d="M95.81,73.15v20.07h-22.5l.09-1.07c.41-5.28,1.26-10.48,2.52-15.47l.15-.58,.57-.14c5.88-1.52,11.98-2.44,18.12-2.76l1.05-.05Z"/><path d="M66.7,79.21l-.33,1.88c-.62,3.46-1.09,7.23-1.38,11.21l-.07,.92h-16.13l1.01-1.54c2.86-4.4,8.11-8.44,15.17-11.68l1.73-.79Z"/><path d="M77.84,51.87l-2.01,3.25c-2.54,4.1-4.66,8.72-6.32,13.75l-.16,.48-.47,.16c-5.07,1.71-9.7,3.84-13.77,6.32l-3.23,1.97,1.83-3.3c4.84-8.76,12.03-15.94,20.78-20.78l3.35-1.85Z"/><path d="M95.81,47.73v17.09l-.95,.04c-4.68,.22-9.32,.73-13.78,1.51l-1.87,.33,.79-1.73c3.91-8.54,8.89-14.3,14.42-16.65l1.39-.59Z"/><path d="M120.8,66.71l-1.89-.34c-4.45-.81-9.08-1.32-13.76-1.51l-.96-.04v-17.09l1.39,.59c5.53,2.35,10.51,8.11,14.42,16.65l.8,1.74Z"/><path d="M148.14,77.84l-3.25-2.01c-4.1-2.54-8.73-4.66-13.76-6.32l-.48-.15-.16-.48c-1.71-5.07-3.83-9.7-6.32-13.77l-1.97-3.22,3.31,1.83c8.75,4.84,15.94,12.02,20.78,20.78l1.85,3.34Z"/><path d="M151.21,93.22h-16.13l-.07-.93c-.26-3.95-.72-7.72-1.37-11.19l-.36-1.9,1.76,.8c7.05,3.24,12.3,7.28,15.16,11.68l1.01,1.54Z"/><path d="M120.79,133.31l-.79,1.73c-3.91,8.54-8.89,14.29-14.42,16.64l-1.39,.59v-17.08l.95-.04c4.68-.22,9.32-.73,13.78-1.51l1.87-.33Z"/><path d="M152.84,101.6l-.26,1.2c-1.38,6.54-7.61,12.65-17.55,17.2l-1.74,.8,.34-1.88c.94-5.21,1.48-10.71,1.61-16.35l.02-.97h17.58Z"/></g></g></svg>