<?xml version="1.0" encoding="UTF-8"?><svg id="Layer_2" xmlns="http://www.w3.org/2000/svg" viewBox="0 0 200 200"><g id="www_social-circles"><g><g><polygon points="55.28 94.2 55.01 94.2 55.26 93.82 55.28 94.2"/><path d="M146.33,101.27l-.25,1.21c-.63,2.97-2.39,5.84-5.15,8.47l4.14-9.68h1.26Z"/><path d="M96.47,130.63v15.25l-1.4-.59c-4.86-2.07-9.24-7.12-12.67-14.62l-.8-1.74,1.89,.34c3.88,.71,7.93,1.16,12.02,1.32l.96,.04Z"/></g><path d="M100,0C44.77,0,0,44.77,0,100s44.77,100,100,100,100-44.77,100-100S155.23,0,100,0Zm0,46.61c20.09,0,37.62,11.16,46.73,27.59h-8.29c-4.09-6.12-9.6-11.17-16.09-14.76l-3.31-1.83,1.97,3.23c2.17,3.54,4.03,7.58,5.52,12l.16,.48,.47,.15c.71,.23,1.4,.48,2.09,.73h-58.45c.67-.25,1.35-.49,2.04-.73l.47-.16,.16-.47c1.44-4.39,3.3-8.43,5.51-12l2.01-3.25-3.35,1.85c-6.49,3.59-11.99,8.65-16.08,14.76h-8.28c9.1-16.43,26.63-27.59,46.72-27.59Zm0,106.78c-20.4,0-38.17-11.5-47.15-28.36h8.18c4.16,6.46,9.85,11.79,16.61,15.54l3.31,1.83-1.97-3.23c-2.17-3.55-4.02-7.59-5.51-12.01l-.16-.47-.48-.16c-1.39-.46-2.74-.95-4.06-1.5h62.4c-1.29,.54-2.63,1.04-4.01,1.5l-.48,.16-.15,.48c-1.45,4.39-3.3,8.42-5.51,12l-2.02,3.25,3.35-1.85c6.76-3.75,12.46-9.08,16.61-15.54h8.19c-8.98,16.86-26.75,28.36-47.15,28.36Zm60.72-34.77h-10.98l-1.64-24.45-3.03,7.1h1.26l-.25,1.21c-.63,2.97-2.39,5.84-5.15,8.47l-3.28,7.67h-10.98l-2.46-31.98-1.23,2.79v.02l-2.08,4.75-3.09,7.07-7.59,17.35h-10.98l-1.64-24.45-3.03,7.1-7.42,17.35h-10.99l-2.45-31.98-6.4,14.63-5.3,12.11-2.29,5.24h-10.98l-.33-4.82v-.02l-1.32-19.61-.21,.49-10.23,23.96h-10.99l-2.86-37.23h9.7l.59,27.11,11.4-27.11h10.04l.73,12.43,.02,.38,.42,7.07,.36,6.13h0c.08,.13,.17,.25,.26,.38l2.45-6.51,2.66-7.07,3.59-9.54,1.23-3.27h16.75l.28,12.81,.15,7.07,.16,7.23,3.04-7.23,2.97-7.07,5.39-12.81h10.04l.75,12.81,.42,7.07,.41,7.06,2.66-7.06,2.66-7.07,4.82-12.81h16.75l.05,2.46,.23,10.35,.16,7.07,.16,7.23,3.04-7.23,2.97-7.07,1.77-4.19,3.62-8.62h10.03l1.58,26.94,10.14-26.94h9.76l-16.29,37.23Z"/><path d="M118.38,128.95l-.79,1.72c-3.42,7.5-7.81,12.55-12.67,14.62l-1.39,.59v-15.24l.95-.05c4.09-.19,8.14-.63,12.03-1.32l1.87-.32Z"/><path d="M118.39,71.08l-1.89-.35c-3.88-.71-7.92-1.15-12.01-1.31l-.96-.04v-15.25l1.39,.59c4.86,2.07,9.25,7.12,12.67,14.61l.8,1.75Z"/><path d="M96.47,54.13v15.24l-.96,.05c-4.08,.19-8.13,.63-12.03,1.31l-1.87,.33,.79-1.73c3.43-7.49,7.81-12.54,12.67-14.61l1.4-.59Z"/></g></g></svg>